<?xml version="1.0" encoding="UTF-8" standalone="no"?>
<!-- Created with Inkscape (http://www.inkscape.org/) -->

<svg
   xmlns:dc="http://purl.org/dc/elements/1.1/"
   xmlns:cc="http://creativecommons.org/ns#"
   xmlns:rdf="http://www.w3.org/1999/02/22-rdf-syntax-ns#"
   xmlns:svg="http://www.w3.org/2000/svg"
   xmlns="http://www.w3.org/2000/svg"
   xmlns:sodipodi="http://sodipodi.sourceforge.net/DTD/sodipodi-0.dtd"
   xmlns:inkscape="http://www.inkscape.org/namespaces/inkscape"
   id="svg3058"
   version="1.1"
   inkscape:version="0.48.4 r9939"
   width="100"
   height="67"
   sodipodi:docname="osc-symbol.gif.svg"
   inkscape:export-filename="/home/leviathan/git/minemonics/Minemonics/doc/presentations/[2015] Auditory Informatics/figs/osc-symbol.png"
   inkscape:export-xdpi="414.58569"
   inkscape:export-ydpi="414.58569">
  <metadata
     id="metadata3064">
    <rdf:RDF>
      <cc:Work
         rdf:about="">
        <dc:format>image/svg+xml</dc:format>
        <dc:type
           rdf:resource="http://purl.org/dc/dcmitype/StillImage" />
        <dc:title></dc:title>
      </cc:Work>
    </rdf:RDF>
  </metadata>
  <defs
     id="defs3062" />
  <sodipodi:namedview
     pagecolor="#ffffff"
     bordercolor="#666666"
     borderopacity="1"
     objecttolerance="10"
     gridtolerance="10"
     guidetolerance="10"
     inkscape:pageopacity="0"
     inkscape:pageshadow="2"
     inkscape:window-width="1920"
     inkscape:window-height="1024"
     id="namedview3060"
     showgrid="false"
     inkscape:zoom="12.402985"
     inkscape:cx="50"
     inkscape:cy="33.5"
     inkscape:window-x="0"
     inkscape:window-y="32"
     inkscape:window-maximized="1"
     inkscape:current-layer="svg3058" />
  <path
     style="fill:#000000"
     d="M 39.5,55.49559 C 33.786436,53.472097 26.383489,45.408614 24.926281,39.621515 23.772324,35.038738 23.727145,35 19.536273,35 16.579967,35 14.766082,35.600995 13.5,37 11.246285,39.490327 8.8089027,39.551309 6.6549876,37.171259 4.5039379,34.794376 4.5595548,32.708573 6.8287407,30.654988 9.2532821,28.460808 11.297749,28.56654 13.5,31 c 1.264909,1.397709 3.079967,2 6.027179,2 4.164775,0 4.225365,-0.05103 4.873616,-4.104973 0.913251,-5.711156 2.733213,-8.842063 7.917729,-13.620984 9.18104,-8.4627862 22.181912,-8.4627862 31.362952,0 5.184516,4.778921 7.004478,7.909828 7.917729,13.620984 L 72.255616,33 l 4.717205,0 c 3.447212,0 5.204495,-0.538451 6.527179,-2 2.253715,-2.490327 4.691097,-2.551309 6.845012,-0.171259 2.15105,2.376883 2.095433,4.462686 -0.173753,6.516271 C 87.746718,39.539192 85.702251,39.43346 83.5,37 82.176379,35.537415 80.420033,35 76.963727,35 l -4.726297,0 -1.189172,4.722631 C 69.516035,45.807638 61.384117,54.260618 55.5,55.88476 c -5.345246,1.475403 -11.13264,1.334635 -16,-0.38917 z m 15.88398,-1.725427 c 2.322285,-0.693882 5.867981,-2.981798 8.136183,-5.25 8.628485,-8.628485 8.628485,-22.411841 0,-31.040326 -8.628485,-8.6284849 -22.411841,-8.6284849 -31.040326,0 -8.632978,8.632978 -8.628423,22.404868 0.01027,31.056749 6.026369,6.035568 14.061906,7.872505 22.893873,5.233577 z M 52.575575,46.298078 C 49.752387,43.253397 49.317341,41.738239 48.072839,30.616181 47.090483,21.836899 44.75183,17.5 41,17.5 c -3.160905,0 -6.11508,4.341366 -6.742601,9.908723 C 33.676458,32.56281 32,34.711812 32,30.302415 c 0,-4.665988 1.803912,-9.488306 4.667396,-12.477138 3.407454,-3.556616 5.257754,-3.556616 8.665208,0 C 48.509902,21.141661 50,25.697104 50,32.094175 c 0,16.826747 11.633211,20.495887 14.527529,4.582014 0.467052,-2.567998 0.932452,-3.463833 1.208562,-2.326325 C 67.09843,39.962383 61.987742,49 57.451575,49 c -1.30385,0 -3.49805,-1.215865 -4.876,-2.701922 z M 12.5,34 c 0,-1.832728 -0.601738,-2.585447 -2.254471,-2.820137 -1.352279,-0.192025 -2.4955855,0.308199 -2.8569886,1.25 -0.9956686,2.594671 0.3998828,4.739185 2.8569886,4.390274 C 11.898262,36.585447 12.5,35.832728 12.5,34 z m 77,0 c 0,-1.832728 -0.601738,-2.585447 -2.254471,-2.820137 -1.352279,-0.192025 -2.495586,0.308199 -2.856989,1.25 -0.995668,2.594671 0.399883,4.739185 2.856989,4.390274 C 88.898262,36.585447 89.5,35.832728 89.5,34 z"
     id="path3070"
     inkscape:connector-curvature="0" />
</svg>
